<svg width="26" height="22" viewBox="0 0 26 22" fill="none" xmlns="http://www.w3.org/2000/svg">
<path d="M24.7476 9.94557H3.55121L11.6677 2.21482C12.0927 1.81001 12.1091 1.13745 11.7043 0.712447C11.3 0.287978 10.6275 0.270978 10.2019 0.67579L0.932684 9.50517C0.53159 9.90679 0.310059 10.4402 0.310059 11.0081C0.310059 11.5754 0.53159 12.1094 0.951277 12.5285L10.2025 21.3398C10.4081 21.5359 10.6716 21.6331 10.9351 21.6331C11.2156 21.6331 11.4961 21.5226 11.7048 21.3032C12.1097 20.8782 12.0932 20.2061 11.6682 19.8013L3.51775 12.0706H24.7476C25.3341 12.0706 25.8101 11.5946 25.8101 11.0081C25.8101 10.4216 25.3341 9.94557 24.7476 9.94557Z" fill="#777777"/>
</svg>
