<svg width="37" height="37" viewBox="0 0 37 37" fill="none" xmlns="http://www.w3.org/2000/svg">
<g opacity="0.9" filter="url(#filter0_bd)">
<path fill-rule="evenodd" clip-rule="evenodd" d="M18.0046 31.4641C25.7366 31.4641 32.0046 25.1961 32.0046 17.4641C32.0046 9.73216 25.7366 3.46414 18.0046 3.46414C10.2727 3.46414 4.00464 9.73216 4.00464 17.4641C4.00464 25.1961 10.2727 31.4641 18.0046 31.4641ZM20.3759 21.5817H19.2419V14.3637C19.2419 14.1837 19.1519 14.0937 18.9719 14.0937H16.2539C16.0739 14.0937 15.9839 14.1837 15.9839 14.3637V15.2997C15.9839 15.4797 16.0739 15.5697 16.2539 15.5697H17.2259V21.5817H16.0919C15.9119 21.5817 15.8219 21.6717 15.8219 21.8517V22.7337C15.8219 22.9137 15.9119 23.0037 16.0919 23.0037H20.3759C20.5559 23.0037 20.6459 22.9137 20.6459 22.7337V21.8517C20.6459 21.6717 20.5559 21.5817 20.3759 21.5817ZM16.7219 11.5737C16.7219 11.9457 16.8359 12.2517 17.0639 12.4917C17.2919 12.7317 17.5979 12.8517 17.9819 12.8517C18.3779 12.8517 18.6959 12.7317 18.9359 12.4917C19.1759 12.2517 19.2959 11.9457 19.2959 11.5737C19.2959 11.2017 19.1759 10.8957 18.9359 10.6557C18.7079 10.4037 18.3959 10.2777 17.9999 10.2777C17.6159 10.2777 17.3039 10.4037 17.0639 10.6557C16.8359 10.8957 16.7219 11.2017 16.7219 11.5737Z" fill="white"/>
</g>
<defs>
<filter id="filter0_bd" x="-5.99536" y="-6.53586" width="48" height="48" filterUnits="userSpaceOnUse" color-interpolation-filters="sRGB">
<feFlood flood-opacity="0" result="BackgroundImageFix"/>
<feGaussianBlur in="BackgroundImage" stdDeviation="5"/>
<feComposite in2="SourceAlpha" operator="in" result="effect1_backgroundBlur"/>
<feColorMatrix in="SourceAlpha" type="matrix" values="0 0 0 0 0 0 0 0 0 0 0 0 0 0 0 0 0 0 127 0"/>
<feOffset dy="1"/>
<feGaussianBlur stdDeviation="2"/>
<feColorMatrix type="matrix" values="0 0 0 0 0 0 0 0 0 0 0 0 0 0 0 0 0 0 0.2 0"/>
<feBlend mode="normal" in2="effect1_backgroundBlur" result="effect2_dropShadow"/>
<feBlend mode="normal" in="SourceGraphic" in2="effect2_dropShadow" result="shape"/>
</filter>
</defs>
</svg>
