<svg width="56" height="46" viewBox="0 0 56 46" fill="none" xmlns="http://www.w3.org/2000/svg">
<path d="M3.41118 40.291C3.00421 40.0955 2.56473 40.0729 2.12214 40.0729H0.669678V45.5249H1.5188C1.5188 45.2162 1.49832 44.8956 1.63101 44.6074C1.84518 44.1432 2.34388 43.9203 2.77935 43.7098C3.24643 43.4846 3.76428 43.2648 4.07418 42.8282C4.34891 42.4414 4.42372 41.9289 4.34357 41.4665C4.2514 40.938 3.88895 40.5206 3.41118 40.291ZM3.36933 42.3752C3.16762 42.6763 2.82655 42.8455 2.51041 43.0028C2.16533 43.1746 1.81 43.3452 1.5188 43.6028V40.8612H2.32384C2.77445 40.8612 3.27092 40.9993 3.44903 41.4612C3.55767 41.7428 3.53897 42.1207 3.36933 42.3752" fill="#0713F5"/>
<path d="M9.65501 40.2239C8.91944 39.8091 7.86504 39.9317 7.29644 40.5708C7.01993 40.8812 6.87967 41.2809 6.85474 41.6917C6.8485 41.7956 6.85073 45.5249 6.85073 45.5249H7.69139V43.7187C8.18653 43.6561 8.74088 43.704 9.15632 44.0051C9.52856 44.2747 9.69197 44.6993 9.69286 45.1478C9.69286 45.2735 9.69286 45.5249 9.69286 45.5249H10.534V41.8689C10.5331 41.1983 10.2575 40.5637 9.65501 40.2239ZM9.64655 43.4784C9.14697 42.973 8.38066 42.7962 7.69139 42.9059V42.015C7.69139 41.8512 7.68738 41.6873 7.72968 41.527C7.81028 41.2196 8.04449 40.966 8.34727 40.8648C8.66296 40.7586 9.02853 40.8066 9.29658 41.006C9.56552 41.2063 9.68975 41.5141 9.69286 41.8427C9.69509 42.0985 9.69286 42.3548 9.69286 42.6106V43.5313C9.67728 43.5139 9.66303 43.4948 9.64655 43.4784" fill="#0713F5"/>
<path d="M16.315 43.4993C16.2179 43.4478 16.1142 43.4051 16.0055 43.3709C16.2753 43.223 16.5425 43.0405 16.7313 42.794C16.9063 42.5653 17.006 42.3015 17.0376 42.0164C17.1031 41.4186 16.9072 40.8488 16.4138 40.4842C15.7566 39.9974 14.9253 40.0729 14.1536 40.0729H13.3508V45.5249H14.2C14.2 45.3632 14.1942 45.2003 14.2017 45.0386C14.2187 44.6784 14.3781 44.3307 14.6938 44.1379C15.0023 43.9501 15.4235 43.9279 15.7526 44.0749C16.0843 44.2232 16.2994 44.5412 16.3533 44.8947C16.3849 45.1008 16.3697 45.3171 16.3697 45.5249H17.2273C17.2273 45.2256 17.2438 44.9209 17.1775 44.6269C17.0675 44.1424 16.754 43.7333 16.315 43.4993ZM15.0326 40.8612C15.5732 40.8612 16.1199 41.1246 16.1787 41.7144C16.2072 41.9982 16.1449 42.2793 15.9556 42.4974C15.7486 42.7354 15.44 42.8793 15.1604 43.0134C14.8211 43.1764 14.4805 43.3461 14.2 43.6005V40.8612H15.0326Z" fill="#0713F5"/>
<path d="M19.8679 40.8353C20.1449 40.7616 20.4316 40.7274 20.717 40.7096V40.0719H19.8679V40.8353Z" fill="#0713F5"/>
<path d="M19.8679 41.3142V45.5249H20.717V41.1885C20.4316 41.2005 20.1444 41.2423 19.8679 41.3142Z" fill="#0713F5"/>
<path d="M26.3854 42.9073C26.0808 42.6688 25.7161 42.5316 25.3559 42.4001C25.022 42.2789 24.6337 42.1505 24.3924 41.8756C24.1693 41.622 24.2192 41.2201 24.4489 40.9896C24.6867 40.7515 25.0683 40.6982 25.3813 40.7973C25.7348 40.9087 25.9481 41.2263 25.9481 41.5905H26.7888C26.7888 41.1908 26.6606 40.8066 26.3849 40.5121C26.1178 40.227 25.7495 40.0574 25.3644 40.0072C24.9641 39.9548 24.5491 40.0067 24.1951 40.2079C23.8629 40.3962 23.5829 40.6956 23.464 41.0628C23.3504 41.4137 23.3754 41.8516 23.5562 42.1767C23.7579 42.5387 24.1221 42.7563 24.4939 42.9148C24.8982 43.0867 25.3644 43.1924 25.7259 43.4496C25.8715 43.553 25.9927 43.6858 26.0358 43.863C26.0781 44.0362 26.0626 44.2317 25.982 44.3915C25.7856 44.781 25.2967 44.9001 24.8964 44.8232C24.4476 44.7375 24.1234 44.3636 24.1234 43.9052H23.2908C23.2908 44.3489 23.4355 44.7673 23.7538 45.083C24.0691 45.3966 24.5068 45.5658 24.9463 45.6009C25.4071 45.6377 25.8827 45.5445 26.2643 45.2753C26.6151 45.0271 26.852 44.6425 26.8979 44.2139C26.9509 43.7138 26.7888 43.2235 26.3854 42.9073Z" fill="#0713F5"/>
<path d="M34.2987 43.0253C34.4866 42.7926 34.6696 42.5474 34.7938 42.2738C34.9163 42.0038 34.9604 41.7049 34.9274 41.4105C34.8646 40.85 34.4759 40.385 33.9692 40.1541C33.4514 39.9182 32.799 39.9293 32.2923 40.1878C31.7807 40.4485 31.4138 40.9464 31.3831 41.5264C31.3515 42.1193 31.628 42.6433 32.0955 43L32.5746 42.388C32.4028 42.2241 32.2665 42.0256 32.2273 41.7875C32.1895 41.5584 32.2287 41.327 32.3685 41.1382C32.6428 40.7683 33.1935 40.6568 33.601 40.8611C33.8045 40.9628 33.9754 41.1396 34.0485 41.3567C34.1246 41.5828 34.0885 41.8426 33.9919 42.0567C33.894 42.2729 33.7381 42.4577 33.5907 42.6416C33.023 43.3499 32.4553 44.0579 31.888 44.7658C31.6854 45.0189 31.4824 45.2721 31.2798 45.5248H35.1229V44.7449H32.9184L34.2987 43.0253Z" fill="#0713F5"/>
<path d="M42.2879 40.8019C41.441 39.9763 40.1146 39.7543 39.0397 40.249C37.9555 40.7482 37.3028 41.8963 37.4154 43.0794C37.5258 44.2394 38.395 45.2338 39.5246 45.5194C40.6707 45.8089 41.9282 45.3826 42.6143 44.4126C43.304 43.4374 43.284 42.0681 42.564 41.1146C42.4799 41.0036 42.3877 40.8992 42.2879 40.8019ZM42.0987 43.5826C41.767 44.3593 40.9842 44.8585 40.136 44.8075C39.314 44.7586 38.6003 44.171 38.362 43.3898C38.1176 42.5877 38.4079 41.692 39.0749 41.1839C39.745 40.674 40.6939 40.6558 41.3863 41.1341C42.1602 41.6689 42.4678 42.7165 42.0987 43.5826" fill="#0713F5"/>
<path d="M48.5282 43.0253C48.7161 42.7926 48.8991 42.5474 49.0233 42.2738C49.1458 42.0038 49.1899 41.7049 49.1569 41.4105C49.0937 40.85 48.7054 40.385 48.1987 40.1541C47.6808 39.9182 47.0285 39.9293 46.5218 40.1878C46.0102 40.4485 45.6433 40.9464 45.6126 41.5264C45.581 42.1193 45.857 42.6433 46.325 43L46.8041 42.388C46.6322 42.2241 46.496 42.0256 46.4568 41.7875C46.419 41.5584 46.4577 41.327 46.598 41.1382C46.8722 40.7683 47.423 40.6568 47.8305 40.8611C48.0339 40.9628 48.2049 41.1396 48.2779 41.3567C48.3541 41.5828 48.318 41.8426 48.2214 42.0567C48.1234 42.2729 47.9676 42.4577 47.8198 42.6416C47.2525 43.3499 46.6848 44.0579 46.1175 44.7658C45.9145 45.0189 45.7119 45.2721 45.5093 45.5248H49.3524V44.7449H47.1479L48.5282 43.0253Z" fill="#0713F5"/>
<path d="M54.5149 41.5323V43.3803C54.1105 43.0929 53.6052 43.0054 53.1822 42.7527C52.8166 42.5346 52.7004 42.1532 52.6986 41.7494C52.6964 41.3542 52.6986 40.0729 52.6986 40.0729H51.849C51.849 40.0729 51.8481 41.2076 51.849 41.7752C51.8499 42.3561 51.9933 42.9241 52.4702 43.2981C52.7641 43.5286 53.1176 43.6707 53.468 43.7928C53.7806 43.9021 54.1128 44.0389 54.3274 44.3022C54.4961 44.5096 54.5149 44.7579 54.5149 45.0137V45.5249H55.3306V41.5323H54.5149Z" fill="#0713F5"/>
<path d="M29.9265 30.7354C29.4572 30.5613 28.6677 30.5453 28.0003 31.0871C27.3328 30.5453 26.5434 30.5613 26.0741 30.7354C25.6818 30.881 25.3741 30.9783 24.7961 30.9734C25.3688 32.1641 26.5888 32.9853 28.0003 32.9853C29.4118 32.9853 30.6318 32.1641 31.2044 30.9734C30.6265 30.9783 30.3188 30.881 29.9265 30.7354Z" fill="#0713F5"/>
<path d="M27.9999 0.817618C18.3398 0.817618 10.5081 8.6288 10.5081 18.2644C10.5081 26.5237 16.2631 33.4431 23.9916 35.2507C17.8501 31.9735 15.3459 24.459 18.3073 18.1645C18.786 20.6502 20.4108 22.8651 22.8384 24.0144C19.6721 16.6278 22.0035 7.94441 28.5378 3.14214C27.2523 7.53227 29.2266 11.5493 33.4615 14.5822C38.3056 18.0508 38.5104 25.1287 34.2354 28.9548C35.9337 28.5605 37.5135 27.6278 38.6934 26.2C37.9654 29.9412 35.6135 33.3263 32.0073 35.2507C39.7362 33.4431 45.4909 26.5237 45.4909 18.2644C45.4909 8.6288 37.66 0.817618 27.9999 0.817618Z" fill="#0713F5"/>
<path d="M40.7568 34.1108H41.0872V35.2517H41.2462V34.1108H41.5766V33.962H40.7568V34.1108ZM43.0388 33.962C42.7922 33.962 42.5953 34.069 42.4996 34.2458C42.4043 34.069 42.2075 33.962 41.9604 33.962H41.8749V35.2517H42.0343V34.121H42.0401C42.2712 34.121 42.4204 34.2835 42.4204 34.5336V34.8547H42.5793V34.5336C42.5793 34.2835 42.7285 34.121 42.9591 34.121H42.9649V35.2517H43.1243V33.962H43.0388Z" fill="#0713F5"/>
</svg>
